<svg width="16" height="16" viewBox="0 0 16 16" fill="none" xmlns="http://www.w3.org/2000/svg">
<path fill-rule="evenodd" clip-rule="evenodd" d="M14.371 5.65767C14.371 9.9975 11.0696 15 5.03181 15C3.24242 14.9991 1.49273 14.4862 0 13.5252C0.259847 13.5536 0.521027 13.5687 0.782489 13.5707C2.26747 13.5707 3.7072 13.0729 4.8597 12.1609C3.44033 12.1269 2.20334 11.2103 1.79112 9.88706C1.995 9.92631 2.20235 9.94589 2.41017 9.94553C2.70346 9.94654 2.99541 9.90717 3.27738 9.82859C1.72728 9.50059 0.626797 8.15749 0.642402 6.61269C1.09834 6.8227 1.60835 6.96296 2.13067 6.98301C0.683352 5.99391 0.243704 4.09623 1.1147 2.5977C2.75677 4.63742 5.2228 5.88776 7.88026 6.02799C7.8237 5.78277 7.79528 5.53219 7.79554 5.28086C7.77181 3.49205 9.24151 2.02317 11.0783 2C11.9903 2.00042 12.8599 2.37549 13.4731 3.03298C14.2111 2.89118 14.9174 2.62281 15.5591 2.24038C15.3189 2.99515 14.8054 3.63928 14.1142 4.05297C14.766 3.97696 15.4021 3.80386 16 3.53973C15.5617 4.19485 15.0074 4.76898 14.363 5.23538C14.369 5.37831 14.371 5.52124 14.371 5.65767Z" fill="#B9BDC3"/>
</svg>
