<svg width="16" height="16" viewBox="0 0 16 16" fill="none" xmlns="http://www.w3.org/2000/svg">
<path fill-rule="evenodd" clip-rule="evenodd" d="M0 4.62061C0 2.06885 2.06885 0 4.62061 0H11.3793C13.9313 0 16 2.06885 16 4.62061V11.3794C16 13.9312 13.9313 16 11.3793 16H4.62061C2.06885 16 0 13.9312 0 11.3794V4.62061ZM1.44824 4.75854C1.44824 2.93042 2.93042 1.44824 4.75854 1.44824H11.2413C13.0696 1.44824 14.5516 2.93042 14.5516 4.75854V11.2415C14.5516 13.0696 13.0696 14.5518 11.2413 14.5518H4.75854C2.93042 14.5518 1.44824 13.0696 1.44824 11.2415V4.75854ZM12.0691 8C12.0691 10.2473 10.2473 12.0691 8.00012 12.0691C5.75293 12.0691 3.93115 10.2473 3.93115 8C3.93115 5.75293 5.75293 3.93115 8.00012 3.93115C10.2473 3.93115 12.0691 5.75293 12.0691 8ZM8.00012 10.6208C9.44751 10.6208 10.6207 9.44751 10.6207 8C10.6207 6.55273 9.44751 5.37939 8.00012 5.37939C6.55273 5.37939 5.37939 6.55273 5.37939 8C5.37939 9.44751 6.55273 10.6208 8.00012 10.6208ZM13.1724 3.72412C13.1724 4.25732 12.7401 4.6897 12.2069 4.6897C11.6736 4.6897 11.2413 4.25732 11.2413 3.72412C11.2413 3.19092 11.6736 2.75854 12.2069 2.75854C12.7401 2.75854 13.1724 3.19092 13.1724 3.72412Z" fill="#B9BDC3"/>
</svg>
